0
SECTION
2
HEADER
9
$INSUNITS
70
4
9
$ACADVER
1
AC1014
9
$HANDSEED
5
FFFF
0
ENDSEC
0
SECTION
2
TABLES
0
TABLE
2
VPORT
5
8
100
AcDbSymbolTable
0
ENDTAB
0
TABLE
2
LTYPE
5
5
100
AcDbSymbolTable
0
LTYPE
5
14
100
AcDbSymbolTableRecord
100
AcDbLinetypeTableRecord
2
BYBLOCK
70
0
0
LTYPE
5
15
100
AcDbSymbolTableRecord
100
AcDbLinetypeTableRecord
2
BYLAYER
70
0
0
ENDTAB
0
TABLE
2
LAYER
5
2
100
AcDbSymbolTable
70
2
0
LAYER
5
50
100
AcDbSymbolTableRecord
100
AcDbLayerTableRecord
2
0
70
0
6
CONTINUOUS
0
ENDTAB
0
TABLE
2
STYLE
5
3
100
AcDbSymbolTable
70
1
0
STYLE
5
11
100
AcDbSymbolTableRecord
100
AcDbTextStyleTableRecord
2
STANDARD
70
0
0
ENDTAB
0
TABLE
2
VIEW
5
6
100
AcDbSymbolTable
70
0
0
ENDTAB
0
TABLE
2
UCS
5
7
100
AcDbSymbolTable
70
0
0
ENDTAB
0
TABLE
2
APPID
5
9
100
AcDbSymbolTable
70
2
0
APPID
5
12
100
AcDbSymbolTableRecord
100
AcDbRegAppTableRecord
2
ACAD
70
0
0
ENDTAB
0
TABLE
2
DIMSTYLE
5
A
100
AcDbSymbolTable
70
1
0
ENDTAB
0
TABLE
2
BLOCK_RECORD
5
1
100
AcDbSymbolTable
70
1
0
BLOCK_RECORD
5
1F
100
AcDbSymbolTableRecord
100
AcDbBlockTableRecord
2
*MODEL_SPACE
0
BLOCK_RECORD
5
1B
100
AcDbSymbolTableRecord
100
AcDbBlockTableRecord
2
*PAPER_SPACE
0
ENDTAB
0
ENDSEC
0
SECTION
2
BLOCKS
0
BLOCK
5
20
100
AcDbEntity
100
AcDbBlockBegin
2
*MODEL_SPACE
0
ENDBLK
5
21
100
AcDbEntity
100
AcDbBlockEnd
0
BLOCK
5
1C
100
AcDbEntity
100
AcDbBlockBegin
2
*PAPER_SPACE
0
ENDBLK
5
1D
100
AcDbEntity
100
AcDbBlockEnd
0
ENDSEC
0
SECTION
2
ENTITIES
0
LINE
5
100
100
AcDbEntity
8
0
100
AcDbLine
10
62.466079483142707
20
-21.736627644999118
30
0
11
62.466079483142707
21
28.263372355000882
31
0
0
LINE
5
101
100
AcDbEntity
8
0
100
AcDbLine
10
44.466079483142707
20
30.263372355000886
30
0
11
44.466079483142707
21
33.26337235500089
31
0
0
ARC
5
102
100
AcDbEntity
8
0
100
AcDbCircle
10
-28.53392051685729
20
30.763372355000882
30
0
40
1.0000000000000009
210
-0
220
0
230
1
100
AcDbArc
50
270
51
360
0
LINE
5
103
100
AcDbEntity
8
0
100
AcDbLine
10
-28.53392051685729
20
29.763372355000882
30
0
11
-46.033920516857293
21
29.763372355000879
31
0
0
LINE
5
104
100
AcDbEntity
8
0
100
AcDbLine
10
-32.797296063886236
20
-58.796367434662322
30
0
11
11.979716163746952
21
-37.916503723616948
31
0
0
CIRCLE
5
105
100
AcDbEntity
8
0
100
AcDbCircle
10
-18.533920516857297
20
23.263372355000875
30
0
40
1.5000000000000013
210
0
220
0
230
1
0
CIRCLE
5
106
100
AcDbEntity
8
0
100
AcDbCircle
10
-18.533920516857297
20
6.2633723550008726
30
0
40
1.5000000000000009
210
0
220
0
230
1
0
CIRCLE
5
107
100
AcDbEntity
8
0
100
AcDbCircle
10
-18.533920516857297
20
-10.736627644999128
30
0
40
1.5000000000000009
210
0
220
0
230
1
0
CIRCLE
5
108
100
AcDbEntity
8
0
100
AcDbCircle
10
-34.060270265962352
20
-39.524499435817759
30
0
40
1.5000000000000009
210
0
220
0
230
1
0
CIRCLE
5
109
100
AcDbEntity
8
0
100
AcDbCircle
10
-11.860142955478228
20
-31.903352605576313
30
0
40
1.5000000000000009
210
0
220
0
230
1
0
CIRCLE
5
110
100
AcDbEntity
8
0
100
AcDbCircle
10
13.190827932281874
20
-28.635427084726899
30
0
40
1.5000000000000009
210
0
220
0
230
1
0
CIRCLE
5
111
100
AcDbEntity
8
0
100
AcDbCircle
10
-0.53392051685728714
20
-8.7366276449991087
30
0
40
1.5000000000000009
210
0
220
0
230
1
0
CIRCLE
5
112
100
AcDbEntity
8
0
100
AcDbCircle
10
-0.53392051685728714
20
8.2633723550008931
30
0
40
1.5000000000000009
210
0
220
0
230
1
0
CIRCLE
5
113
100
AcDbEntity
8
0
100
AcDbCircle
10
-0.53392051685728714
20
25.263372355000897
30
0
40
1.5000000000000009
210
0
220
0
230
1
0
CIRCLE
5
114
100
AcDbEntity
8
0
100
AcDbCircle
10
17.466079483142714
20
27.263372355000893
30
0
40
1.5000000000000009
210
0
220
0
230
1
0
CIRCLE
5
115
100
AcDbEntity
8
0
100
AcDbCircle
10
17.466079483142714
20
10.263372355000888
30
0
40
1.5000000000000009
210
0
220
0
230
1
0
CIRCLE
5
116
100
AcDbEntity
8
0
100
AcDbCircle
10
17.466079483142714
20
-6.7366276449991123
30
0
40
1.5000000000000009
210
0
220
0
230
1
0
CIRCLE
5
117
100
AcDbEntity
8
0
100
AcDbCircle
10
35.466079483142707
20
-8.7366276449991176
30
0
40
1.5000000000000009
210
0
220
0
230
1
0
CIRCLE
5
118
100
AcDbEntity
8
0
100
AcDbCircle
10
35.466079483142707
20
8.2633723550008842
30
0
40
1.5000000000000009
210
0
220
0
230
1
0
CIRCLE
5
119
100
AcDbEntity
8
0
100
AcDbCircle
10
35.466079483142707
20
25.263372355000886
30
0
40
1.5000000000000009
210
0
220
0
230
1
0
CIRCLE
5
120
100
AcDbEntity
8
0
100
AcDbCircle
10
53.466079483142714
20
20.26337235500089
30
0
40
1.5000000000000009
210
0
220
0
230
1
0
CIRCLE
5
121
100
AcDbEntity
8
0
100
AcDbCircle
10
53.466079483142714
20
3.2633723550008886
30
0
40
1.5000000000000009
210
0
220
0
230
1
0
CIRCLE
5
122
100
AcDbEntity
8
0
100
AcDbCircle
10
53.466079483142714
20
-13.736627644999114
30
0
40
1.5000000000000009
210
0
220
0
230
1
0
LINE
5
123
100
AcDbEntity
8
0
100
AcDbLine
10
-47.033920516857286
20
28.763372355000882
30
0
11
-47.033920516857265
21
-24.439268839094762
31
0
0
ARC
5
124
100
AcDbEntity
8
0
100
AcDbCircle
10
-49.033920516857279
20
-24.439268839094762
30
0
40
2.0000000000000013
210
-0
220
0
230
1
100
AcDbArc
50
-62.199386047005255
51
0
0
ARC
5
125
100
AcDbEntity
8
0
100
AcDbCircle
10
-46.033920516857293
20
28.763372355000882
30
0
40
0.99999999999999645
210
0
220
-0
230
1
100
AcDbArc
50
90
51
180
0
LINE
5
126
100
AcDbEntity
8
0
100
AcDbLine
10
-48.980951614764066
20
-28.822809272966914
30
0
11
-35.455148161440938
21
-57.828988384070421
31
0
0
LINE
5
127
100
AcDbEntity
8
0
100
AcDbLine
10
13.247570948969049
20
-37.635427084726899
30
0
11
21.035241605003733
21
-37.635427084726892
31
0
0
LINE
5
128
100
AcDbEntity
8
0
100
AcDbLine
10
39.465624995892021
20
-22.736627644999118
30
0
11
61.466079483142707
21
-22.73662764499911
31
0
0
LINE
5
129
100
AcDbEntity
8
0
100
AcDbLine
10
61.466079483142707
20
29.26337235500089
30
0
11
45.466079483142707
21
29.26337235500089
31
0
0
LINE
5
130
100
AcDbEntity
8
0
100
AcDbLine
10
43.466079483142714
20
34.26337235500089
30
0
11
27.46607948314271
21
34.26337235500089
31
0
0
LINE
5
131
100
AcDbEntity
8
0
100
AcDbLine
10
25.466079483142714
20
36.26337235500089
30
0
11
9.4660794831427086
21
36.26337235500089
31
0
0
LINE
5
132
100
AcDbEntity
8
0
100
AcDbLine
10
7.4660794831427113
20
34.263372355000897
30
0
11
-8.5339205168572896
21
34.263372355000875
31
0
0
LINE
5
133
100
AcDbEntity
8
0
100
AcDbLine
10
-10.533920516857284
20
32.263372355000882
30
0
11
-26.533920516857286
21
32.263372355000882
31
0
0
LINE
5
134
100
AcDbEntity
8
0
100
AcDbLine
10
-27.53392051685729
20
31.263372355000882
30
0
11
-27.53392051685729
21
30.763372355000879
31
0
0
ARC
5
135
100
AcDbEntity
8
0
100
AcDbCircle
10
61.466079483142707
20
-21.736627644999118
30
0
40
0.99999999999999645
210
0
220
0
230
1
100
AcDbArc
50
-90
51
0
0
ARC
5
136
100
AcDbEntity
8
0
100
AcDbCircle
10
61.466079483142707
20
28.263372355000882
30
0
40
0.99999999999999645
210
0
220
0
230
1
100
AcDbArc
50
0
51
90
0
ARC
5
137
100
AcDbEntity
8
0
100
AcDbCircle
10
45.466079483142707
20
30.263372355000886
30
0
40
0.99999999999999645
210
0
220
0
230
1
100
AcDbArc
50
180
51
270
0
ARC
5
138
100
AcDbEntity
8
0
100
AcDbCircle
10
43.466079483142707
20
33.26337235500089
30
0
40
1.0000000000000053
210
0
220
0
230
1
100
AcDbArc
50
0
51
89.999999999999588
0
ARC
5
139
100
AcDbEntity
8
0
100
AcDbCircle
10
27.46607948314271
20
35.263372355000882
30
0
40
1.0000000000000009
210
0
220
0
230
1
100
AcDbArc
50
180
51
270
0
ARC
5
140
100
AcDbEntity
8
0
100
AcDbCircle
10
25.46607948314271
20
35.263372355000882
30
0
40
1.0000000000000009
210
0
220
0
230
1
100
AcDbArc
50
0
51
89.999999999999801
0
ARC
5
141
100
AcDbEntity
8
0
100
AcDbCircle
10
9.4660794831427157
20
35.263372355000882
30
0
40
1.0000000000000053
210
0
220
0
230
1
100
AcDbArc
50
90.000000000000398
51
180
0
ARC
5
142
100
AcDbEntity
8
0
100
AcDbCircle
10
7.4660794831427104
20
35.263372355000897
30
0
40
1.0000000000000009
210
-0
220
0
230
1
100
AcDbArc
50
-89.999999999999943
51
0
0
ARC
5
143
100
AcDbEntity
8
0
100
AcDbCircle
10
-8.533920516857286
20
33.263372355000875
30
0
40
1.0000000000000009
210
0
220
0
230
1
100
AcDbArc
50
90.000000000000199
51
180
0
ARC
5
144
100
AcDbEntity
8
0
100
AcDbCircle
10
-10.533920516857284
20
33.263372355000882
30
0
40
1.0000000000000009
210
-0
220
0
230
1
100
AcDbArc
50
-90
51
0
0
ARC
5
145
100
AcDbEntity
8
0
100
AcDbCircle
10
-26.533920516857282
20
31.263372355000879
30
0
40
1.0000000000000053
210
0
220
0
230
1
100
AcDbArc
50
90.000000000000199
51
180
0
ARC
5
146
100
AcDbEntity
8
0
100
AcDbCircle
10
-47.168336040690761
20
-27.977572749485521
30
0
40
2.0000000000000098
210
0
220
0
230
1
100
AcDbArc
50
117.80061395299505
51
204.99999999999977
0
ARC
5
147
100
AcDbEntity
8
0
100
AcDbCircle
10
-33.64253258736764
20
-56.983751860589024
30
0
40
2.0000000000000018
210
0
220
0
230
1
100
AcDbArc
50
204.99999999999994
51
295.00000000000017
0
ARC
5
148
100
AcDbEntity
8
0
100
AcDbCircle
10
13.247570948969049
20
-40.635427084726892
30
0
40
2.9999999999999982
210
0
220
-0
230
1
100
AcDbArc
50
90
51
115.00000000000003
0
ARC
5
149
100
AcDbEntity
8
0
100
AcDbCircle
10
21.035241605003723
20
-35.635427084726878
30
0
40
2.0000000000000151
210
0
220
0
230
1
100
AcDbArc
50
270.00000000000034
51
312.06742229926823
0
LINE
5
150
100
AcDbEntity
8
0
100
AcDbLine
10
22.375250868895485
20
-37.120140920011067
30
0
11
37.455611100054384
21
-23.509556892072851
31
0
0
ARC
5
151
100
AcDbEntity
8
0
100
AcDbCircle
10
39.465624995892021
20
-25.736627644999118
30
0
40
3.0000000000000027
210
0
220
-0
230
1
100
AcDbArc
50
90
51
132.0674222992684
0
CIRCLE
5
152
100
AcDbEntity
8
0
100
AcDbCircle
10
13.885310920694645
20
-28.635427084726899
30
0
40
0.499999999999999
210
0
220
0
230
1
0
CIRCLE
5
153
100
AcDbEntity
8
0
100
AcDbCircle
10
-11.098463399731326
20
-31.903352605576313
30
0
40
0.49999999999999933
210
0
220
0
230
1
0
ENDSEC
0
SECTION
2
OBJECTS
0
DICTIONARY
5
C
100
AcDbDictionary
3
ACAD_GROUP
350
D
3
ACAD_MLINESTYLE
350
17
0
DICTIONARY
5
D
100
AcDbDictionary
0
DICTIONARY
5
1A
330
C
100
AcDbDictionary
0
DICTIONARY
5
17
100
AcDbDictionary
0
ENDSEC
0
EOF
