  0
SECTION
  2
HEADER
  9
$ACADVER
  1
AC1009
  0
ENDSEC
  0
SECTION
  2
ENTITIES
  0
CIRCLE
  5
90
  8
Layer_0
  62
0
  10
325.29779
  20
142.42474
  30
0
  40
1.0000019
  0
CIRCLE
  5
90
  8
Layer_0
  62
0
  10
258.50778
  20
120.26474
  30
0
  40
1.0000019
  0
CIRCLE
  5
90
  8
Layer_0
  62
0
  10
289.28781
  20
149.24475
  30
0
  40
1.0000019
  0
CIRCLE
  5
90
  8
Layer_0
  62
0
  10
325.29779
  20
176.37476
  30
0
  40
1.0000019
  0
CIRCLE
  5
90
  8
Layer_0
  62
0
  10
271.29779
  20
181.15475
  30
0
  40
1.0000019
  0
POLYLINE
  5
90
  8
Layer_0
  62
0
  66
1
  10
0
  20
0
  30
0
  0
VERTEX
  5
90
  8
Layer_0
  10
306.6813
  20
192.21478
  0
VERTEX
  5
91
  8
Layer_0
  10
306.49371
  20
192.2717
  0
VERTEX
  5
92
  8
Layer_0
  10
306.29861
  20
192.29089
  0
VERTEX
  5
93
  8
Layer_0
  10
290.29861
  20
192.29089
  0
VERTEX
  5
94
  8
Layer_0
  10
290.10355
  20
192.27167
  0
VERTEX
  5
95
  8
Layer_0
  10
289.91595
  20
192.21478
  0
VERTEX
  5
96
  8
Layer_0
  10
289.74307
  20
192.12234
  0
VERTEX
  5
97
  8
Layer_0
  10
289.59152
  20
191.99799
  0
VERTEX
  5
98
  8
Layer_0
  10
289.46719
  20
191.84647
  0
VERTEX
  5
99
  8
Layer_0
  10
289.37479
  20
191.67355
  0
VERTEX
  5
9a
  8
Layer_0
  10
289.3179
  20
191.48596
  0
VERTEX
  5
9b
  8
Layer_0
  10
289.29861
  20
191.29089
  0
VERTEX
  5
9c
  8
Layer_0
  10
289.27939
  20
191.09579
  0
VERTEX
  5
9d
  8
Layer_0
  10
289.22247
  20
190.90823
  0
VERTEX
  5
9e
  8
Layer_0
  10
289.13007
  20
190.73535
  0
VERTEX
  5
9f
  8
Layer_0
  10
289.00571
  20
190.58383
  0
VERTEX
  5
a0
  8
Layer_0
  10
288.85416
  20
190.45947
  0
VERTEX
  5
a1
  8
Layer_0
  10
288.6813
  20
190.36707
  0
VERTEX
  5
a2
  8
Layer_0
  10
288.49371
  20
190.31018
  0
VERTEX
  5
a3
  8
Layer_0
  10
288.29861
  20
190.29089
  0
VERTEX
  5
a4
  8
Layer_0
  10
272.29861
  20
190.29089
  0
VERTEX
  5
a5
  8
Layer_0
  10
272.10355
  20
190.27167
  0
VERTEX
  5
a6
  8
Layer_0
  10
271.91595
  20
190.21478
  0
VERTEX
  5
a7
  8
Layer_0
  10
271.74307
  20
190.12234
  0
VERTEX
  5
a8
  8
Layer_0
  10
271.59152
  20
189.99799
  0
VERTEX
  5
a9
  8
Layer_0
  10
271.46719
  20
189.84647
  0
VERTEX
  5
aa
  8
Layer_0
  10
271.37479
  20
189.67355
  0
VERTEX
  5
ab
  8
Layer_0
  10
271.3179
  20
189.48596
  0
VERTEX
  5
ac
  8
Layer_0
  10
271.29861
  20
189.29089
  0
VERTEX
  5
ad
  8
Layer_0
  10
271.27939
  20
189.09579
  0
VERTEX
  5
ae
  8
Layer_0
  10
271.22247
  20
188.90823
  0
VERTEX
  5
af
  8
Layer_0
  10
271.13007
  20
188.73535
  0
VERTEX
  5
b0
  8
Layer_0
  10
271.00571
  20
188.58383
  0
VERTEX
  5
b1
  8
Layer_0
  10
270.85416
  20
188.45947
  0
VERTEX
  5
b2
  8
Layer_0
  10
270.6813
  20
188.36707
  0
VERTEX
  5
b3
  8
Layer_0
  10
270.49371
  20
188.31018
  0
VERTEX
  5
b4
  8
Layer_0
  10
270.29861
  20
188.29089
  0
VERTEX
  5
b5
  8
Layer_0
  10
254.29861
  20
188.29089
  0
VERTEX
  5
b6
  8
Layer_0
  10
254.10355
  20
188.27167
  0
VERTEX
  5
b7
  8
Layer_0
  10
253.91595
  20
188.21478
  0
VERTEX
  5
b8
  8
Layer_0
  10
253.74307
  20
188.12234
  0
VERTEX
  5
b9
  8
Layer_0
  10
253.59152
  20
187.99799
  0
VERTEX
  5
ba
  8
Layer_0
  10
253.46719
  20
187.84647
  0
VERTEX
  5
bb
  8
Layer_0
  10
253.37479
  20
187.67355
  0
VERTEX
  5
bc
  8
Layer_0
  10
253.3179
  20
187.48596
  0
VERTEX
  5
bd
  8
Layer_0
  10
253.29861
  20
187.29089
  0
VERTEX
  5
be
  8
Layer_0
  10
253.29861
  20
186.79089
  0
VERTEX
  5
bf
  8
Layer_0
  10
253.27939
  20
186.59579
  0
VERTEX
  5
c0
  8
Layer_0
  10
253.22247
  20
186.40823
  0
VERTEX
  5
c1
  8
Layer_0
  10
253.13007
  20
186.23535
  0
VERTEX
  5
c2
  8
Layer_0
  10
253.00571
  20
186.08383
  0
VERTEX
  5
c3
  8
Layer_0
  10
252.85416
  20
185.95947
  0
VERTEX
  5
c4
  8
Layer_0
  10
252.6813
  20
185.86707
  0
VERTEX
  5
c5
  8
Layer_0
  10
252.49371
  20
185.81018
  0
VERTEX
  5
c6
  8
Layer_0
  10
252.29861
  20
185.79089
  0
VERTEX
  5
c7
  8
Layer_0
  10
234.79861
  20
185.79089
  0
VERTEX
  5
c8
  8
Layer_0
  10
234.60355
  20
185.77167
  0
VERTEX
  5
c9
  8
Layer_0
  10
234.41595
  20
185.71478
  0
VERTEX
  5
ca
  8
Layer_0
  10
234.24307
  20
185.62234
  0
VERTEX
  5
cb
  8
Layer_0
  10
234.09152
  20
185.49799
  0
VERTEX
  5
cc
  8
Layer_0
  10
233.96719
  20
185.34647
  0
VERTEX
  5
cd
  8
Layer_0
  10
233.87479
  20
185.17355
  0
VERTEX
  5
ce
  8
Layer_0
  10
233.8179
  20
184.98596
  0
VERTEX
  5
cf
  8
Layer_0
  10
233.79861
  20
184.79089
  0
VERTEX
  5
d0
  8
Layer_0
  10
233.79861
  20
131.58826
  0
VERTEX
  5
d1
  8
Layer_0
  10
233.78024
  20
131.31769
  0
VERTEX
  5
d2
  8
Layer_0
  10
233.72543
  20
131.05209
  0
VERTEX
  5
d3
  8
Layer_0
  10
233.63519
  20
130.79636
  0
VERTEX
  5
d4
  8
Layer_0
  10
233.51117
  20
130.55518
  0
VERTEX
  5
d5
  8
Layer_0
  10
233.35568
  20
130.33301
  0
VERTEX
  5
d6
  8
Layer_0
  10
233.17157
  20
130.13388
  0
VERTEX
  5
d7
  8
Layer_0
  10
232.96219
  20
129.96152
  0
VERTEX
  5
d8
  8
Layer_0
  10
232.73141
  20
129.81909
  0
VERTEX
  5
d9
  8
Layer_0
  10
232.49634
  20
129.67352
  0
VERTEX
  5
da
  8
Layer_0
  10
232.2836
  20
129.49695
  0
VERTEX
  5
db
  8
Layer_0
  10
232.09723
  20
129.29272
  0
VERTEX
  5
dc
  8
Layer_0
  10
231.9408
  20
129.06473
  0
VERTEX
  5
dd
  8
Layer_0
  10
231.81729
  20
128.81732
  0
VERTEX
  5
de
  8
Layer_0
  10
231.72913
  20
128.5553
  0
VERTEX
  5
df
  8
Layer_0
  10
231.67792
  20
128.28357
  0
VERTEX
  5
e0
  8
Layer_0
  10
231.66467
  20
128.00742
  0
VERTEX
  5
e1
  8
Layer_0
  10
231.68964
  20
127.73206
  0
VERTEX
  5
e2
  8
Layer_0
  10
231.75232
  20
127.46277
  0
VERTEX
  5
e3
  8
Layer_0
  10
231.85159
  20
127.20471
  0
VERTEX
  5
e4
  8
Layer_0
  10
245.37741
  20
98.198517
  0
VERTEX
  5
e5
  8
Layer_0
  10
245.51614
  20
97.949188
  0
VERTEX
  5
e6
  8
Layer_0
  10
245.68896
  20
97.722107
  0
VERTEX
  5
e7
  8
Layer_0
  10
245.89233
  20
97.521973
  0
VERTEX
  5
e8
  8
Layer_0
  10
246.12213
  20
97.352783
  0
VERTEX
  5
e9
  8
Layer_0
  10
246.37366
  20
97.218018
  0
VERTEX
  5
ea
  8
Layer_0
  10
246.64178
  20
97.120453
  0
VERTEX
  5
eb
  8
Layer_0
  10
246.92108
  20
97.062012
  0
VERTEX
  5
ec
  8
Layer_0
  10
247.20587
  20
97.043915
  0
VERTEX
  5
ed
  8
Layer_0
  10
247.49033
  20
97.066528
  0
VERTEX
  5
ee
  8
Layer_0
  10
247.76865
  20
97.129395
  0
VERTEX
  5
ef
  8
Layer_0
  10
248.03525
  20
97.23114
  0
VERTEX
  5
f0
  8
Layer_0
  10
292.81226
  20
118.11102
  0
VERTEX
  5
f1
  8
Layer_0
  10
293.11581
  20
118.23288
  0
VERTEX
  5
f2
  8
Layer_0
  10
293.43079
  20
118.32098
  0
VERTEX
  5
f3
  8
Layer_0
  10
293.75351
  20
118.37424
  0
VERTEX
  5
f4
  8
Layer_0
  10
294.08011
  20
118.39209
  0
VERTEX
  5
f5
  8
Layer_0
  10
301.8678
  20
118.39209
  0
VERTEX
  5
f6
  8
Layer_0
  10
302.16043
  20
118.4136
  0
VERTEX
  5
f7
  8
Layer_0
  10
302.44675
  20
118.47772
  0
VERTEX
  5
f8
  8
Layer_0
  10
302.72061
  20
118.58304
  0
VERTEX
  5
f9
  8
Layer_0
  10
302.97614
  20
118.72729
  0
VERTEX
  5
fa
  8
Layer_0
  10
303.20779
  20
118.90738
  0
VERTEX
  5
fb
  8
Layer_0
  10
318.28815
  20
132.51794
  0
VERTEX
  5
fc
  8
Layer_0
  10
318.57504
  20
132.74664
  0
VERTEX
  5
fd
  8
Layer_0
  10
318.88766
  20
132.93863
  0
VERTEX
  5
fe
  8
Layer_0
  10
319.22141
  20
133.091
  0
VERTEX
  5
ff
  8
Layer_0
  10
319.57126
  20
133.20151
  0
VERTEX
  5
100
  8
Layer_0
  10
319.93198
  20
133.26846
  0
VERTEX
  5
101
  8
Layer_0
  10
320.29819
  20
133.29089
  0
VERTEX
  5
102
  8
Layer_0
  10
342.29861
  20
133.29089
  0
VERTEX
  5
103
  8
Layer_0
  10
342.49371
  20
133.31012
  0
VERTEX
  5
104
  8
Layer_0
  10
342.6813
  20
133.367
  0
VERTEX
  5
105
  8
Layer_0
  10
342.85422
  20
133.45941
  0
VERTEX
  5
106
  8
Layer_0
  10
343.00574
  20
133.58377
  0
VERTEX
  5
107
  8
Layer_0
  10
343.13013
  20
133.73532
  0
VERTEX
  5
108
  8
Layer_0
  10
343.22253
  20
133.9082
  0
VERTEX
  5
109
  8
Layer_0
  10
343.27945
  20
134.09579
  0
VERTEX
  5
10a
  8
Layer_0
  10
343.29861
  20
134.29089
  0
VERTEX
  5
10b
  8
Layer_0
  10
343.29861
  20
184.29089
  0
VERTEX
  5
10c
  8
Layer_0
  10
343.27942
  20
184.48596
  0
VERTEX
  5
10d
  8
Layer_0
  10
343.2225
  20
184.67358
  0
VERTEX
  5
10e
  8
Layer_0
  10
343.1301
  20
184.84647
  0
VERTEX
  5
10f
  8
Layer_0
  10
343.00574
  20
184.99799
  0
VERTEX
  5
110
  8
Layer_0
  10
342.85419
  20
185.12238
  0
VERTEX
  5
111
  8
Layer_0
  10
342.6813
  20
185.21478
  0
VERTEX
  5
112
  8
Layer_0
  10
342.49371
  20
185.2717
  0
VERTEX
  5
113
  8
Layer_0
  10
342.29861
  20
185.29089
  0
VERTEX
  5
114
  8
Layer_0
  10
326.29861
  20
185.29089
  0
VERTEX
  5
115
  8
Layer_0
  10
326.10355
  20
185.31009
  0
VERTEX
  5
116
  8
Layer_0
  10
325.91592
  20
185.367
  0
VERTEX
  5
117
  8
Layer_0
  10
325.74304
  20
185.45941
  0
VERTEX
  5
118
  8
Layer_0
  10
325.59149
  20
185.58377
  0
VERTEX
  5
119
  8
Layer_0
  10
325.46713
  20
185.73529
  0
VERTEX
  5
11a
  8
Layer_0
  10
325.37473
  20
185.9082
  0
VERTEX
  5
11b
  8
Layer_0
  10
325.31781
  20
186.09579
  0
VERTEX
  5
11c
  8
Layer_0
  10
325.29861
  20
186.29089
  0
VERTEX
  5
11d
  8
Layer_0
  10
325.29861
  20
189.29089
  0
VERTEX
  5
11e
  8
Layer_0
  10
325.27942
  20
189.48596
  0
VERTEX
  5
11f
  8
Layer_0
  10
325.2225
  20
189.67358
  0
VERTEX
  5
120
  8
Layer_0
  10
325.1301
  20
189.84647
  0
VERTEX
  5
121
  8
Layer_0
  10
325.00574
  20
189.99799
  0
VERTEX
  5
122
  8
Layer_0
  10
324.85419
  20
190.12238
  0
VERTEX
  5
123
  8
Layer_0
  10
324.6813
  20
190.21478
  0
VERTEX
  5
124
  8
Layer_0
  10
324.49371
  20
190.2717
  0
VERTEX
  5
125
  8
Layer_0
  10
324.29861
  20
190.29089
  0
VERTEX
  5
126
  8
Layer_0
  10
308.29861
  20
190.29089
  0
VERTEX
  5
127
  8
Layer_0
  10
308.10355
  20
190.31009
  0
VERTEX
  5
128
  8
Layer_0
  10
307.91592
  20
190.367
  0
VERTEX
  5
129
  8
Layer_0
  10
307.74304
  20
190.45941
  0
VERTEX
  5
12a
  8
Layer_0
  10
307.59149
  20
190.58377
  0
VERTEX
  5
12b
  8
Layer_0
  10
307.46713
  20
190.73529
  0
VERTEX
  5
12c
  8
Layer_0
  10
307.37473
  20
190.9082
  0
VERTEX
  5
12d
  8
Layer_0
  10
307.31781
  20
191.09579
  0
VERTEX
  5
12e
  8
Layer_0
  10
307.29861
  20
191.29089
  0
VERTEX
  5
12f
  8
Layer_0
  10
307.27942
  20
191.48596
  0
VERTEX
  5
130
  8
Layer_0
  10
307.2225
  20
191.67358
  0
VERTEX
  5
131
  8
Layer_0
  10
307.1301
  20
191.84647
  0
VERTEX
  5
132
  8
Layer_0
  10
307.00574
  20
191.99799
  0
VERTEX
  5
133
  8
Layer_0
  10
306.85419
  20
192.12238
  0
VERTEX
  5
134
  8
Layer_0
  10
306.6813
  20
192.21478
  0
SEQEND
  0
POLYLINE
  5
136
  8
Layer_1
  62
1
  66
1
  10
0
  20
0
  30
0
  0
VERTEX
  5
136
  8
Layer_1
  10
352.75937
  20
181.74847
  0
VERTEX
  5
137
  8
Layer_1
  10
352.95004
  20
181.71112
  42
-0.075490613
  0
VERTEX
  5
138
  8
Layer_1
  10
353.32748
  20
181.54608
  0
VERTEX
  5
139
  8
Layer_1
  10
353.20761
  20
181.20599
  0
VERTEX
  5
13a
  8
Layer_1
  10
353.04501
  20
181.28925
  42
0.31033331
  0
VERTEX
  5
13b
  8
Layer_1
  10
352.06943
  20
181.2016
  42
0.20159481
  0
VERTEX
  5
13c
  8
Layer_1
  10
351.70248
  20
180.14594
  42
0.16453741
  0
VERTEX
  5
13d
  8
Layer_1
  10
351.95761
  20
179.20111
  42
0.30512676
  0
VERTEX
  5
13e
  8
Layer_1
  10
352.91269
  20
178.93353
  42
0.070612082
  0
VERTEX
  5
13f
  8
Layer_1
  10
353.24252
  20
179.0661
  0
VERTEX
  5
140
  8
Layer_1
  10
353.35263
  20
178.72601
  42
-0.28153273
  0
VERTEX
  5
141
  8
Layer_1
  10
351.8331
  20
178.75092
  42
-0.22110515
  0
VERTEX
  5
142
  8
Layer_1
  10
351.28867
  20
179.9455
  42
-0.19790783
  0
VERTEX
  5
143
  8
Layer_1
  10
351.66269
  20
181.34613
  42
-0.26083215
  0
VERTEX
  5
144
  8
Layer_1
  10
352.75937
  20
181.74847
  0
SEQEND
  0
POLYLINE
  5
146
  8
Layer_1
  62
1
  66
1
  10
0
  20
0
  30
0
  0
VERTEX
  5
146
  8
Layer_1
  10
377.49203
  20
181.75677
  42
-0.12368418
  0
VERTEX
  5
147
  8
Layer_1
  10
378.16269
  20
181.57098
  0
VERTEX
  5
148
  8
Layer_1
  10
378.03256
  20
181.22601
  0
VERTEX
  5
149
  8
Layer_1
  10
377.91391
  20
181.28607
  42
0.2131196
  0
VERTEX
  5
14a
  8
Layer_1
  10
377.06381
  20
181.34271
  42
0.38579017
  0
VERTEX
  5
14b
  8
Layer_1
  10
376.82455
  20
180.83612
  42
0.24176834
  0
VERTEX
  5
14c
  8
Layer_1
  10
377.2977
  20
180.40106
  0
VERTEX
  5
14d
  8
Layer_1
  10
377.60434
  20
180.26605
  42
-0.21004236
  0
VERTEX
  5
14e
  8
Layer_1
  10
378.21518
  20
179.73602
  42
-0.25067851
  0
VERTEX
  5
14f
  8
Layer_1
  10
378.12436
  20
178.86908
  42
-0.2275462
  0
VERTEX
  5
150
  8
Layer_1
  10
377.2225
  20
178.53094
  42
-0.12656864
  0
VERTEX
  5
151
  8
Layer_1
  10
376.32748
  20
178.74603
  0
VERTEX
  5
152
  8
Layer_1
  10
376.45248
  20
179.08612
  0
VERTEX
  5
153
  8
Layer_1
  10
376.57626
  20
179.02655
  42
0.19737854
  0
VERTEX
  5
154
  8
Layer_1
  10
377.61069
  20
178.95355
  42
0.32137036
  0
VERTEX
  5
155
  8
Layer_1
  10
377.86752
  20
179.36615
  42
0.30981248
  0
VERTEX
  5
156
  8
Layer_1
  10
377.4227
  20
179.92865
  42
0.014488694
  0
VERTEX
  5
157
  8
Layer_1
  10
377.16757
  20
180.03607
  0
VERTEX
  5
158
  8
Layer_1
  10
377.0206
  20
180.09979
  42
-0.24740655
  0
VERTEX
  5
159
  8
Layer_1
  10
376.4183
  20
180.72845
  42
-0.32920767
  0
VERTEX
  5
15a
  8
Layer_1
  10
376.7977
  20
181.633
  42
-0.14162888
  0
VERTEX
  5
15b
  8
Layer_1
  10
377.49203
  20
181.75677
  0
SEQEND
  0
POLYLINE
  5
15d
  8
Layer_1
  62
1
  66
1
  10
0
  20
0
  30
0
  0
VERTEX
  5
15d
  8
Layer_1
  10
369.9227
  20
181.75482
  0
VERTEX
  5
15e
  8
Layer_1
  10
370.03769
  20
181.73676
  42
-0.27347439
  0
VERTEX
  5
15f
  8
Layer_1
  10
370.785
  20
181.0119
  42
-0.18813439
  0
VERTEX
  5
160
  8
Layer_1
  10
370.67123
  20
179.02753
  42
-0.36542792
  0
VERTEX
  5
161
  8
Layer_1
  10
369.45419
  20
178.58441
  42
-0.26202431
  0
VERTEX
  5
162
  8
Layer_1
  10
368.77768
  20
179.42596
  42
-0.17337012
  0
VERTEX
  5
163
  8
Layer_1
  10
368.93417
  20
181.26312
  42
-0.31199588
  0
VERTEX
  5
164
  8
Layer_1
  10
369.9227
  20
181.75482
  0
SEQEND
  0
POLYLINE
  5
166
  8
Layer_1
  62
1
  66
1
  10
0
  20
0
  30
0
  0
VERTEX
  5
166
  8
Layer_1
  10
360.25937
  20
181.74847
  0
VERTEX
  5
167
  8
Layer_1
  10
360.45004
  20
181.71112
  42
-0.075517451
  0
VERTEX
  5
168
  8
Layer_1
  10
360.82748
  20
181.54608
  0
VERTEX
  5
169
  8
Layer_1
  10
360.70761
  20
181.20599
  0
VERTEX
  5
16a
  8
Layer_1
  10
360.54501
  20
181.28925
  42
0.31033331
  0
VERTEX
  5
16b
  8
Layer_1
  10
359.56943
  20
181.2016
  42
0.20159481
  0
VERTEX
  5
16c
  8
Layer_1
  10
359.20248
  20
180.14594
  42
0.16453741
  0
VERTEX
  5
16d
  8
Layer_1
  10
359.45761
  20
179.20111
  42
0.30513424
  0
VERTEX
  5
16e
  8
Layer_1
  10
360.41269
  20
178.93353
  42
0.070612082
  0
VERTEX
  5
16f
  8
Layer_1
  10
360.74252
  20
179.0661
  0
VERTEX
  5
170
  8
Layer_1
  10
360.85263
  20
178.72601
  42
-0.28153273
  0
VERTEX
  5
171
  8
Layer_1
  10
359.3331
  20
178.75092
  42
-0.22110522
  0
VERTEX
  5
172
  8
Layer_1
  10
358.78867
  20
179.9455
  42
-0.19790783
  0
VERTEX
  5
173
  8
Layer_1
  10
359.16269
  20
181.34613
  42
-0.26083215
  0
VERTEX
  5
174
  8
Layer_1
  10
360.25937
  20
181.74847
  0
SEQEND
  0
POLYLINE
  5
176
  8
Layer_1
  62
1
  66
1
  10
0
  20
0
  30
0
  0
VERTEX
  5
176
  8
Layer_1
  10
358.24252
  20
181.341
  0
VERTEX
  5
177
  8
Layer_1
  10
356.91757
  20
181.341
  0
VERTEX
  5
178
  8
Layer_1
  10
356.91757
  20
180.39105
  0
VERTEX
  5
179
  8
Layer_1
  10
358.07748
  20
180.39105
  0
VERTEX
  5
17a
  8
Layer_1
  10
358.07748
  20
180.04095
  0
VERTEX
  5
17b
  8
Layer_1
  10
356.91757
  20
180.04095
  0
VERTEX
  5
17c
  8
Layer_1
  10
356.91757
  20
178.94598
  0
VERTEX
  5
17d
  8
Layer_1
  10
358.35263
  20
178.94598
  0
VERTEX
  5
17e
  8
Layer_1
  10
358.35263
  20
178.59613
  0
VERTEX
  5
17f
  8
Layer_1
  10
356.50766
  20
178.59613
  0
VERTEX
  5
180
  8
Layer_1
  10
356.50766
  20
181.6911
  0
VERTEX
  5
181
  8
Layer_1
  10
358.24252
  20
181.6911
  0
VERTEX
  5
182
  8
Layer_1
  10
358.24252
  20
181.341
  0
SEQEND
  0
POLYLINE
  5
184
  8
Layer_1
  62
1
  66
1
  10
0
  20
0
  30
0
  0
VERTEX
  5
184
  8
Layer_1
  10
399.80746
  20
180.15106
  0
VERTEX
  5
185
  8
Layer_1
  10
400.28769
  20
181.6911
  0
VERTEX
  5
186
  8
Layer_1
  10
400.6727
  20
181.6911
  42
-0.023198772
  0
VERTEX
  5
187
  8
Layer_1
  10
400.89267
  20
178.59613
  0
VERTEX
  5
188
  8
Layer_1
  10
400.49252
  20
178.59613
  0
VERTEX
  5
189
  8
Layer_1
  10
400.4769
  20
179.50092
  0
VERTEX
  5
18a
  8
Layer_1
  10
400.43759
  20
181.18109
  0
VERTEX
  5
18b
  8
Layer_1
  10
399.98764
  20
179.77094
  0
VERTEX
  5
18c
  8
Layer_1
  10
399.62753
  20
179.77094
  0
VERTEX
  5
18d
  8
Layer_1
  10
399.16757
  20
181.18109
  0
VERTEX
  5
18e
  8
Layer_1
  10
399.16196
  20
180.85175
  0
VERTEX
  5
18f
  8
Layer_1
  10
399.11264
  20
178.59613
  0
VERTEX
  5
190
  8
Layer_1
  10
398.71249
  20
178.59613
  42
-0.022052768
  0
VERTEX
  5
191
  8
Layer_1
  10
398.94247
  20
181.6911
  0
VERTEX
  5
192
  8
Layer_1
  10
399.3226
  20
181.6911
  0
VERTEX
  5
193
  8
Layer_1
  10
399.80746
  20
180.15106
  0
SEQEND
  0
POLYLINE
  5
195
  8
Layer_1
  62
1
  66
1
  10
0
  20
0
  30
0
  0
VERTEX
  5
195
  8
Layer_1
  10
361.78256
  20
180.31097
  0
VERTEX
  5
196
  8
Layer_1
  10
362.10068
  20
180.6535
  42
0.024901727
  0
VERTEX
  5
197
  8
Layer_1
  10
362.92758
  20
181.6911
  0
VERTEX
  5
198
  8
Layer_1
  10
363.40268
  20
181.6911
  42
-0.041418402
  0
VERTEX
  5
199
  8
Layer_1
  10
362.23251
  20
180.24603
  42
-0.11168447
  0
VERTEX
  5
19a
  8
Layer_1
  10
363.50766
  20
178.59613
  0
VERTEX
  5
19b
  8
Layer_1
  10
363.04257
  20
178.59613
  0
VERTEX
  5
19c
  8
Layer_1
  10
362.91269
  20
178.82343
  42
0.11164024
  0
VERTEX
  5
19d
  8
Layer_1
  10
361.78256
  20
180.07611
  0
VERTEX
  5
19e
  8
Layer_1
  10
361.78256
  20
178.59613
  0
VERTEX
  5
19f
  8
Layer_1
  10
361.37265
  20
178.59613
  0
VERTEX
  5
1a0
  8
Layer_1
  10
361.37265
  20
181.6911
  0
VERTEX
  5
1a1
  8
Layer_1
  10
361.78256
  20
181.6911
  0
VERTEX
  5
1a2
  8
Layer_1
  10
361.78256
  20
180.31097
  0
SEQEND
  0
POLYLINE
  5
1a4
  8
Layer_1
  62
1
  66
1
  10
0
  20
0
  30
0
  0
VERTEX
  5
1a4
  8
Layer_1
  10
366.68759
  20
180.38593
  0
VERTEX
  5
1a5
  8
Layer_1
  10
367.91757
  20
180.38593
  0
VERTEX
  5
1a6
  8
Layer_1
  10
367.91757
  20
181.6911
  0
VERTEX
  5
1a7
  8
Layer_1
  10
368.32748
  20
181.6911
  0
VERTEX
  5
1a8
  8
Layer_1
  10
368.32748
  20
178.59613
  0
VERTEX
  5
1a9
  8
Layer_1
  10
367.91757
  20
178.59613
  0
VERTEX
  5
1aa
  8
Layer_1
  10
367.91757
  20
180.03607
  0
VERTEX
  5
1ab
  8
Layer_1
  10
366.68759
  20
180.03607
  0
VERTEX
  5
1ac
  8
Layer_1
  10
366.68759
  20
178.59613
  0
VERTEX
  5
1ad
  8
Layer_1
  10
366.27768
  20
178.59613
  0
VERTEX
  5
1ae
  8
Layer_1
  10
366.27768
  20
181.6911
  0
VERTEX
  5
1af
  8
Layer_1
  10
366.68759
  20
181.6911
  0
VERTEX
  5
1b0
  8
Layer_1
  10
366.68759
  20
180.38593
  0
SEQEND
  0
POLYLINE
  5
1b2
  8
Layer_1
  62
1
  66
1
  10
0
  20
0
  30
0
  0
VERTEX
  5
1b2
  8
Layer_1
  10
397.30746
  20
180.15106
  0
VERTEX
  5
1b3
  8
Layer_1
  10
397.78769
  20
181.6911
  0
VERTEX
  5
1b4
  8
Layer_1
  10
398.1727
  20
181.6911
  42
-0.023198772
  0
VERTEX
  5
1b5
  8
Layer_1
  10
398.39267
  20
178.59613
  0
VERTEX
  5
1b6
  8
Layer_1
  10
397.99252
  20
178.59613
  0
VERTEX
  5
1b7
  8
Layer_1
  10
397.9769
  20
179.50092
  0
VERTEX
  5
1b8
  8
Layer_1
  10
397.93759
  20
181.18109
  0
VERTEX
  5
1b9
  8
Layer_1
  10
397.48764
  20
179.77094
  0
VERTEX
  5
1ba
  8
Layer_1
  10
397.12753
  20
179.77094
  0
VERTEX
  5
1bb
  8
Layer_1
  10
396.66757
  20
181.18109
  0
VERTEX
  5
1bc
  8
Layer_1
  10
396.66196
  20
180.85175
  0
VERTEX
  5
1bd
  8
Layer_1
  10
396.61264
  20
178.59613
  0
VERTEX
  5
1be
  8
Layer_1
  10
396.21249
  20
178.59613
  42
-0.022052555
  0
VERTEX
  5
1bf
  8
Layer_1
  10
396.44247
  20
181.6911
  0
VERTEX
  5
1c0
  8
Layer_1
  10
396.8226
  20
181.6911
  0
VERTEX
  5
1c1
  8
Layer_1
  10
397.30746
  20
180.15106
  0
SEQEND
  0
POLYLINE
  5
1c3
  8
Layer_1
  62
1
  66
1
  10
0
  20
0
  30
0
  0
VERTEX
  5
1c3
  8
Layer_1
  10
354.18759
  20
180.38593
  0
VERTEX
  5
1c4
  8
Layer_1
  10
355.41757
  20
180.38593
  0
VERTEX
  5
1c5
  8
Layer_1
  10
355.41757
  20
181.6911
  0
VERTEX
  5
1c6
  8
Layer_1
  10
355.82748
  20
181.6911
  0
VERTEX
  5
1c7
  8
Layer_1
  10
355.82748
  20
178.59613
  0
VERTEX
  5
1c8
  8
Layer_1
  10
355.41757
  20
178.59613
  0
VERTEX
  5
1c9
  8
Layer_1
  10
355.41757
  20
180.03607
  0
VERTEX
  5
1ca
  8
Layer_1
  10
354.18759
  20
180.03607
  0
VERTEX
  5
1cb
  8
Layer_1
  10
354.18759
  20
178.59613
  0
VERTEX
  5
1cc
  8
Layer_1
  10
353.77768
  20
178.59613
  0
VERTEX
  5
1cd
  8
Layer_1
  10
353.77768
  20
181.6911
  0
VERTEX
  5
1ce
  8
Layer_1
  10
354.18759
  20
181.6911
  0
VERTEX
  5
1cf
  8
Layer_1
  10
354.18759
  20
180.38593
  0
SEQEND
  0
POLYLINE
  5
1d1
  8
Layer_1
  62
1
  66
1
  10
0
  20
0
  30
0
  0
VERTEX
  5
1d1
  8
Layer_1
  10
371.91757
  20
178.94598
  0
VERTEX
  5
1d2
  8
Layer_1
  10
373.35263
  20
178.94598
  0
VERTEX
  5
1d3
  8
Layer_1
  10
373.35263
  20
178.59613
  0
VERTEX
  5
1d4
  8
Layer_1
  10
371.50766
  20
178.59613
  0
VERTEX
  5
1d5
  8
Layer_1
  10
371.50766
  20
181.6911
  0
VERTEX
  5
1d6
  8
Layer_1
  10
371.91757
  20
181.6911
  0
VERTEX
  5
1d7
  8
Layer_1
  10
371.91757
  20
178.94598
  0
SEQEND
  0
POLYLINE
  5
1d9
  8
Layer_1
  62
1
  66
1
  10
0
  20
0
  30
0
  0
VERTEX
  5
1d9
  8
Layer_1
  10
375.74252
  20
181.341
  0
VERTEX
  5
1da
  8
Layer_1
  10
374.41757
  20
181.341
  0
VERTEX
  5
1db
  8
Layer_1
  10
374.41757
  20
180.39105
  0
VERTEX
  5
1dc
  8
Layer_1
  10
375.57748
  20
180.39105
  0
VERTEX
  5
1dd
  8
Layer_1
  10
375.57748
  20
180.04095
  0
VERTEX
  5
1de
  8
Layer_1
  10
374.41757
  20
180.04095
  0
VERTEX
  5
1df
  8
Layer_1
  10
374.41757
  20
178.94598
  0
VERTEX
  5
1e0
  8
Layer_1
  10
375.85263
  20
178.94598
  0
VERTEX
  5
1e1
  8
Layer_1
  10
375.85263
  20
178.59613
  0
VERTEX
  5
1e2
  8
Layer_1
  10
374.00766
  20
178.59613
  0
VERTEX
  5
1e3
  8
Layer_1
  10
374.00766
  20
181.6911
  0
VERTEX
  5
1e4
  8
Layer_1
  10
375.74252
  20
181.6911
  0
VERTEX
  5
1e5
  8
Layer_1
  10
375.74252
  20
181.341
  0
SEQEND
  0
POLYLINE
  5
1e7
  8
Layer_1
  62
1
  66
1
  10
0
  20
0
  30
0
  0
VERTEX
  5
1e7
  8
Layer_1
  10
382.70956
  20
181.31171
  42
-0.019300761
  0
VERTEX
  5
1e8
  8
Layer_1
  10
383.50766
  20
178.59613
  0
VERTEX
  5
1e9
  8
Layer_1
  10
383.0726
  20
178.59613
  0
VERTEX
  5
1ea
  8
Layer_1
  10
382.88754
  20
179.40594
  0
VERTEX
  5
1eb
  8
Layer_1
  10
381.6976
  20
179.40594
  0
VERTEX
  5
1ec
  8
Layer_1
  10
381.51767
  20
178.59613
  0
VERTEX
  5
1ed
  8
Layer_1
  10
381.0975
  20
178.59613
  42
-0.029478174
  0
VERTEX
  5
1ee
  8
Layer_1
  10
382.05746
  20
181.6911
  0
VERTEX
  5
1ef
  8
Layer_1
  10
382.56747
  20
181.6911
  0
VERTEX
  5
1f0
  8
Layer_1
  10
382.70956
  20
181.31171
  0
SEQEND
  0
POLYLINE
  5
1f2
  8
Layer_1
  62
1
  66
1
  10
0
  20
0
  30
0
  0
VERTEX
  5
1f2
  8
Layer_1
  10
384.84531
  20
181.70575
  42
-0.21827773
  0
VERTEX
  5
1f3
  8
Layer_1
  10
385.54868
  20
181.33856
  42
-0.29251401
  0
VERTEX
  5
1f4
  8
Layer_1
  10
385.55746
  20
180.24359
  42
-0.13478493
  0
VERTEX
  5
1f5
  8
Layer_1
  10
385.15268
  20
179.90594
  0
VERTEX
  5
1f6
  8
Layer_1
  10
385.32016
  20
179.63348
  42
-0.027270158
  0
VERTEX
  5
1f7
  8
Layer_1
  10
385.86752
  20
178.59613
  0
VERTEX
  5
1f8
  8
Layer_1
  10
385.42758
  20
178.59613
  0
VERTEX
  5
1f9
  8
Layer_1
  10
385.2706
  20
178.94843
  42
0.05943838
  0
VERTEX
  5
1fa
  8
Layer_1
  10
384.75766
  20
179.82098
  0
VERTEX
  5
1fb
  8
Layer_1
  10
384.72079
  20
179.81732
  42
-0.012012354
  0
VERTEX
  5
1fc
  8
Layer_1
  10
384.24252
  20
179.8161
  0
VERTEX
  5
1fd
  8
Layer_1
  10
384.24252
  20
178.59613
  0
VERTEX
  5
1fe
  8
Layer_1
  10
383.82748
  20
178.59613
  0
VERTEX
  5
1ff
  8
Layer_1
  10
383.82748
  20
181.64594
  42
-0.076437638
  0
VERTEX
  5
200
  8
Layer_1
  10
384.84531
  20
181.70575
  0
SEQEND
  0
POLYLINE
  5
202
  8
Layer_1
  62
1
  66
1
  10
0
  20
0
  30
0
  0
VERTEX
  5
202
  8
Layer_1
  10
392.42929
  20
181.74701
  42
-0.2026716
  0
VERTEX
  5
203
  8
Layer_1
  10
392.97079
  20
181.47781
  42
-0.20270724
  0
VERTEX
  5
204
  8
Layer_1
  10
393.15268
  20
180.90106
  42
-0.18237685
  0
VERTEX
  5
205
  8
Layer_1
  10
392.69247
  20
180.01093
  42
-0.008199175
  0
VERTEX
  5
206
  8
Layer_1
  10
392.25253
  20
179.55609
  0
VERTEX
  5
207
  8
Layer_1
  10
392.15512
  20
179.44989
  42
0.15584406
  0
VERTEX
  5
208
  8
Layer_1
  10
391.85263
  20
178.94598
  0
VERTEX
  5
209
  8
Layer_1
  10
393.27768
  20
178.94598
  0
VERTEX
  5
20a
  8
Layer_1
  10
393.27768
  20
178.59613
  0
VERTEX
  5
20b
  8
Layer_1
  10
391.40268
  20
178.59613
  42
-0.20679836
  0
VERTEX
  5
20c
  8
Layer_1
  10
391.7645
  20
179.58661
  42
-0.010523591
  0
VERTEX
  5
20d
  8
Layer_1
  10
392.47641
  20
180.33099
  0
VERTEX
  5
20e
  8
Layer_1
  10
392.56015
  20
180.43597
  42
0.33425468
  0
VERTEX
  5
20f
  8
Layer_1
  10
392.63998
  20
181.20282
  42
0.34338285
  0
VERTEX
  5
210
  8
Layer_1
  10
391.86386
  20
181.3222
  42
0.078728918
  0
VERTEX
  5
211
  8
Layer_1
  10
391.54257
  20
181.10101
  0
VERTEX
  5
212
  8
Layer_1
  10
391.33749
  20
181.39105
  42
-0.24444493
  0
VERTEX
  5
213
  8
Layer_1
  10
392.42929
  20
181.74701
  0
SEQEND
  0
POLYLINE
  5
215
  8
Layer_1
  62
1
  66
1
  10
0
  20
0
  30
0
  0
VERTEX
  5
215
  8
Layer_1
  10
388.24252
  20
181.341
  0
VERTEX
  5
216
  8
Layer_1
  10
386.91757
  20
181.341
  0
VERTEX
  5
217
  8
Layer_1
  10
386.91757
  20
180.39105
  0
VERTEX
  5
218
  8
Layer_1
  10
388.07748
  20
180.39105
  0
VERTEX
  5
219
  8
Layer_1
  10
388.07748
  20
180.04095
  0
VERTEX
  5
21a
  8
Layer_1
  10
386.91757
  20
180.04095
  0
VERTEX
  5
21b
  8
Layer_1
  10
386.91757
  20
178.94598
  0
VERTEX
  5
21c
  8
Layer_1
  10
388.35263
  20
178.94598
  0
VERTEX
  5
21d
  8
Layer_1
  10
388.35263
  20
178.59613
  0
VERTEX
  5
21e
  8
Layer_1
  10
386.50766
  20
178.59613
  0
VERTEX
  5
21f
  8
Layer_1
  10
386.50766
  20
181.6911
  0
VERTEX
  5
220
  8
Layer_1
  10
388.24252
  20
181.6911
  0
VERTEX
  5
221
  8
Layer_1
  10
388.24252
  20
181.341
  0
SEQEND
  0
POLYLINE
  5
223
  8
Layer_1
  62
1
  66
1
  10
0
  20
0
  30
0
  0
VERTEX
  5
223
  8
Layer_1
  10
369.63144
  20
181.38568
  42
0.26922972
  0
VERTEX
  5
224
  8
Layer_1
  10
369.2103
  20
180.90082
  42
0.15923066
  0
VERTEX
  5
225
  8
Layer_1
  10
369.28256
  20
179.21112
  42
0.37471991
  0
VERTEX
  5
226
  8
Layer_1
  10
369.95663
  20
178.90643
  42
0.26449596
  0
VERTEX
  5
227
  8
Layer_1
  10
370.39413
  20
179.3913
  42
0.16863251
  0
VERTEX
  5
228
  8
Layer_1
  10
370.31747
  20
181.08099
  42
0.36513548
  0
VERTEX
  5
229
  8
Layer_1
  10
369.63144
  20
181.38568
  0
SEQEND
  0
POLYLINE
  5
22b
  8
Layer_1
  62
1
  66
1
  10
0
  20
0
  30
0
  0
VERTEX
  5
22b
  8
Layer_1
  10
382.17758
  20
180.99115
  0
VERTEX
  5
22c
  8
Layer_1
  10
382.0477
  20
180.60101
  42
0.012207811
  0
VERTEX
  5
22d
  8
Layer_1
  10
381.79257
  20
179.74603
  0
VERTEX
  5
22e
  8
Layer_1
  10
382.79257
  20
179.74603
  42
0.027048213
  0
VERTEX
  5
22f
  8
Layer_1
  10
382.2977
  20
181.33099
  0
VERTEX
  5
230
  8
Layer_1
  10
382.17758
  20
180.99115
  0
SEQEND
  0
POLYLINE
  5
232
  8
Layer_1
  62
1
  66
1
  10
0
  20
0
  30
0
  0
VERTEX
  5
232
  8
Layer_1
  10
384.39511
  20
181.36346
  0
VERTEX
  5
233
  8
Layer_1
  10
384.30331
  20
181.35907
  0
VERTEX
  5
234
  8
Layer_1
  10
384.24252
  20
181.35101
  0
VERTEX
  5
235
  8
Layer_1
  10
384.24252
  20
180.15594
  42
0.086752934
  0
VERTEX
  5
236
  8
Layer_1
  10
384.96249
  20
180.21674
  42
0.34454168
  0
VERTEX
  5
237
  8
Layer_1
  10
385.28769
  20
180.76605
  42
0.21018874
  0
VERTEX
  5
238
  8
Layer_1
  10
385.15002
  20
181.18192
  42
0.2102357
  0
VERTEX
  5
239
  8
Layer_1
  10
384.74936
  20
181.35907
  42
0.032887806
  0
VERTEX
  5
23a
  8
Layer_1
  10
384.39511
  20
181.36346
  0
SEQEND
  0
ENDSEC
  0
EOF
