0
SECTION
2
HEADER
9
$INSUNITS
70
4
9
$ACADVER
1
AC1014
9
$HANDSEED
5
FFFF
0
ENDSEC
0
SECTION
2
TABLES
0
TABLE
2
VPORT
5
8
100
AcDbSymbolTable
0
ENDTAB
0
TABLE
2
LTYPE
5
5
100
AcDbSymbolTable
0
LTYPE
5
14
100
AcDbSymbolTableRecord
100
AcDbLinetypeTableRecord
2
BYBLOCK
70
0
0
LTYPE
5
15
100
AcDbSymbolTableRecord
100
AcDbLinetypeTableRecord
2
BYLAYER
70
0
0
ENDTAB
0
TABLE
2
LAYER
5
2
100
AcDbSymbolTable
70
2
0
LAYER
5
50
100
AcDbSymbolTableRecord
100
AcDbLayerTableRecord
2
0
70
0
6
CONTINUOUS
0
ENDTAB
0
TABLE
2
STYLE
5
3
100
AcDbSymbolTable
70
1
0
STYLE
5
11
100
AcDbSymbolTableRecord
100
AcDbTextStyleTableRecord
2
STANDARD
70
0
0
ENDTAB
0
TABLE
2
VIEW
5
6
100
AcDbSymbolTable
70
0
0
ENDTAB
0
TABLE
2
UCS
5
7
100
AcDbSymbolTable
70
0
0
ENDTAB
0
TABLE
2
APPID
5
9
100
AcDbSymbolTable
70
2
0
APPID
5
12
100
AcDbSymbolTableRecord
100
AcDbRegAppTableRecord
2
ACAD
70
0
0
ENDTAB
0
TABLE
2
DIMSTYLE
5
A
100
AcDbSymbolTable
70
1
0
ENDTAB
0
TABLE
2
BLOCK_RECORD
5
1
100
AcDbSymbolTable
70
1
0
BLOCK_RECORD
5
1F
100
AcDbSymbolTableRecord
100
AcDbBlockTableRecord
2
*MODEL_SPACE
0
BLOCK_RECORD
5
1B
100
AcDbSymbolTableRecord
100
AcDbBlockTableRecord
2
*PAPER_SPACE
0
ENDTAB
0
ENDSEC
0
SECTION
2
BLOCKS
0
BLOCK
5
20
100
AcDbEntity
100
AcDbBlockBegin
2
*MODEL_SPACE
0
ENDBLK
5
21
100
AcDbEntity
100
AcDbBlockEnd
0
BLOCK
5
1C
100
AcDbEntity
100
AcDbBlockBegin
2
*PAPER_SPACE
0
ENDBLK
5
1D
100
AcDbEntity
100
AcDbBlockEnd
0
ENDSEC
0
SECTION
2
ENTITIES
0
LWPOLYLINE
5
100
100
AcDbEntity
8
0
100
AcDbPolyline
90
142
70
1
43
0.0
10
10.833662
20
-31.245797
42
0.24780509316422364
10
10.397602000000001
20
-32.071612764199251
10
10.39760199999999
20
-77.025079611948129
42
-0.29147336435936616
10
9.2428388925460823
20
-78.837695013923678
10
-9.5502779999999525
20
-87.601074000000096
10
-9.7189789999999139
20
-87.700909000000081
10
-9.8649340000000105
20
-87.831777000000017
10
-9.9825569999999857
20
-87.988602
10
-10.067330999999937
20
-88.165358000000026
10
-10.115996999999997
20
-88.355254000000002
10
-10.126686999999992
20
-88.550996000000012
10
-10.098988999999975
20
-88.745063999999985
10
-10.033967999992285
20
-88.929999999996426
10
4.3350529999999701
20
-119.74446500000002
10
4.4348670000000245
20
-119.91318800000001
10
4.5657270000000496
20
-120.05916299999994
10
4.722550999999986
20
-120.17680100000004
10
4.8993129999999923
20
-120.26158100000005
10
5.0892189999999999
20
-120.31024600000002
10
5.2849710000000059
20
-120.32092400000008
10
5.479044
20
-120.293205
10
5.663979000003927
20
-120.22815500000837
10
51.548222999999993
20
-98.831980999999999
10
51.81986000000002
20
-98.728639000000058
10
52.103599000000003
20
-98.665729000000013
10
52.393459
20
-98.644596000000021
10
60.235339000000003
20
-98.644596000000021
10
60.527976000000038
20
-98.623115000000126
10
60.814313000000041
20
-98.559004000000101
10
61.088186000000036
20
-98.453681000000088
10
61.343698000000124
20
-98.309415000000158
10
61.575348000006642
20
-98.129310000007365
10
76.941172999999964
20
-84.261082999999942
10
77.172839000000039
20
-84.081010000000077
10
77.428355000000053
20
-83.936764000000153
10
77.70222499999997
20
-83.831449999999862
10
77.988553999999993
20
-83.767335000000017
10
78.281182999999999
20
-83.745796999999996
10
100.833662
20
-83.745796999999996
10
101.02875100000003
20
-83.726554000000064
10
101.21634300000004
20
-83.669655000000063
10
101.38922999999994
20
-83.577250999999961
10
101.54076799999996
20
-83.452891999999977
10
101.66513100000004
20
-83.301359000000019
10
101.75754199999997
20
-83.128475999999992
10
101.81444800000001
20
-82.940884999999994
10
101.83366200000002
20
-82.74579700000001
10
101.83366200000002
20
-32.745797000000003
10
101.81448700000006
20
-32.550701999999994
10
101.75757800000005
20
-32.363104999999976
10
101.66516300000005
20
-32.190214999999974
10
101.54079400000002
20
-32.038676999999971
10
101.38925100000002
20
-31.914314000000012
10
101.21635800000001
20
-31.821906999999957
10
101.028758
20
-31.765005000000009
10
100.833662
20
-31.745797000000003
10
84.833662000000004
20
-31.745797000000003
10
84.638575000000003
20
-31.726535000000084
10
84.450982999999994
20
-31.669639999999998
10
84.278094999999965
20
-31.577239000000045
10
84.126557999999974
20
-31.452884000000036
10
84.00219400000006
20
-31.301353999999975
10
83.909782999999933
20
-31.128472000000016
10
83.852877000000007
20
-30.940882999999999
10
83.833662000000004
20
-30.745797000000003
10
83.833662000000004
20
-27.745797000000003
10
83.814389000000119
20
-27.550713999999967
10
83.757486999999898
20
-27.363128000000057
10
83.665084000000078
20
-27.190245999999924
10
83.540729999999996
20
-27.038712
10
83.389202999999981
20
-26.914349000000026
10
83.216326999999978
20
-26.821935000000042
10
83.028744000000003
20
-26.765021999999998
10
82.833662000000018
20
-26.745797000000003
10
66.833662000000004
20
-26.745797000000003
10
66.638574999999975
20
-26.72653500000008
10
66.450982999999994
20
-26.669640000000001
10
66.278094999999965
20
-26.577239000000045
10
66.12655799999996
20
-26.452884000000036
10
66.00219400000006
20
-26.301353999999975
10
65.909782999999948
20
-26.128472000000016
10
65.852877000000007
20
-25.940882999999999
10
65.833662000000004
20
-25.745797000000003
10
65.814389000000119
20
-25.550713999999971
10
65.757486999999912
20
-25.363128000000046
10
65.665084000000078
20
-25.190245999999931
10
65.540729999999996
20
-25.038712000000004
10
65.389202999999995
20
-24.914349000000019
10
65.216326999999993
20
-24.82193500000005
10
65.028744000000003
20
-24.765022000000002
10
64.833662000000004
20
-24.745797
10
48.833662000000004
20
-24.745797
10
48.638569999999973
20
-24.764983999999927
10
48.450976000000011
20
-24.821896000000024
10
48.278090000000027
20
-24.914311000000033
10
48.126554000000027
20
-25.038679000000016
10
48.00219199999998
20
-25.190218999999988
10
47.909782999999919
20
-25.36310899999998
10
47.852876999999992
20
-25.550704
10
47.833662000000004
20
-25.745797000000003
10
47.814482000000027
20
-25.940892000000012
10
47.757574000000005
20
-26.128489000000002
10
47.665160000000057
20
-26.301379000000047
10
47.540792000000003
20
-26.452917000000006
10
47.389250000000004
20
-26.577279999999995
10
47.216357000000009
20
-26.669687000000046
10
47.028756999999999
20
-26.726589000000015
10
46.833662000000004
20
-26.745797000000003
10
30.833662000000004
20
-26.745796999999996
10
30.638569999999984
20
-26.764983999999927
10
30.450976000000015
20
-26.821896000000024
10
30.27809000000002
20
-26.91431100000003
10
30.126554000000016
20
-27.038679000000016
10
30.002191999999987
20
-27.190218999999992
10
29.909782999999919
20
-27.363108999999977
10
29.852877000000003
20
-27.550704000000003
10
29.833662000000007
20
-27.745797000000003
10
29.814482000000034
20
-27.940892000000012
10
29.757574000000009
20
-28.128489000000002
10
29.665160000000053
20
-28.301379000000043
10
29.540792000000007
20
-28.452917000000006
10
29.389249999999997
20
-28.577279999999995
10
29.216357000000013
20
-28.669687000000046
10
29.028756999999999
20
-28.726589000000011
10
28.833662000000004
20
-28.745797
10
12.833662
20
-28.745797
10
12.63856999999998
20
-28.764983999999934
10
12.450976000000013
20
-28.82189600000002
10
12.278090000000025
20
-28.914311000000026
10
12.12655400000002
20
-29.038679000000016
10
12.002191999999987
20
-29.190218999999992
10
11.909782999999919
20
-29.36310899999998
10
11.852876999999999
20
-29.550704000000003
10
11.833662
20
-29.745797
10
11.833662000000004
20
-30.245797000000003
10
11.81448200000003
20
-30.440892000000012
10
11.757574000000004
20
-30.628489000000005
10
11.66516000000005
20
-30.801379000000043
10
11.540792000000003
20
-30.952917000000006
10
11.389250000000001
20
-31.077279999999995
10
11.216357000000015
20
-31.169687000000046
10
11.028757000000001
20
-31.226589000000011
0
ENDSEC
0
SECTION
2
OBJECTS
0
DICTIONARY
5
C
100
AcDbDictionary
3
ACAD_GROUP
350
D
3
ACAD_MLINESTYLE
350
17
0
DICTIONARY
5
D
100
AcDbDictionary
0
DICTIONARY
5
1A
330
C
100
AcDbDictionary
0
DICTIONARY
5
17
100
AcDbDictionary
0
ENDSEC
0
EOF
